<svg width="612" height="523" viewBox="0 0 612 523" fill="none" xmlns="http://www.w3.org/2000/svg">
<path d="M3.59679 119.39C1.54435 99.2523 14.876 80.6973 34.7033 76.6191C222.74 37.9429 380.361 36.7986 575.099 83.4399C595.611 88.3526 608.35 108.705 604.302 129.405L532.669 495.672C529.728 510.706 515.933 521.11 500.67 519.805L282 501.099H69.5979C54.2071 501.099 41.313 489.452 39.7525 474.141L3.59679 119.39Z" fill="#BD7029"/>
<path d="M50.5883 155.261C48.5404 135.132 61.8379 116.579 81.6685 112.561C238.97 80.6871 371.837 79.8081 534.64 118.195C555.157 123.032 567.859 143.377 563.82 164.066L504.182 469.557C501.245 484.598 487.445 495.008 472.176 493.7L288.648 477.972H110.521C95.1286 477.972 82.2335 466.322 80.6755 451.008L50.5883 155.261Z" fill="#1F0F0F"/>
<path d="M55.5858 153.266C53.5393 133.139 66.8402 114.585 86.6712 110.58C237.997 80.0255 366.043 79.1975 522.638 115.984C543.155 120.804 555.861 141.15 551.825 161.836L494.515 455.553C491.58 470.596 477.778 481.007 462.508 479.698L285.809 464.548H114.341C98.9479 464.548 86.0525 452.897 84.4953 437.582L55.5858 153.266Z" fill="#531B06"/>
<path d="M528 239L590 204L583 241L528 239Z" fill="#2A0B08"/>
<path d="M576.975 225.5L528 239L590 204L576.975 225.5Z" fill="#833713"/>
<path d="M84.2559 183.211L5.50458 135.999L9.47924 173.967L84.2559 183.211Z" fill="#2A0B08"/>
<path d="M19.9443 159.889L84.2559 183.211L5.50458 135.999L19.9443 159.889Z" fill="#833713"/>
<path d="M505.615 462.268C488.528 459.021 419.628 414.221 419.628 414.221C419.628 414.221 446.42 420.6 461.465 424.425C476.511 428.25 497.796 442.434 497.796 442.434L538.954 472.305C538.954 472.305 522.702 465.515 505.615 462.268Z" fill="#7D3B21"/>
<path d="M504.489 462.396C517.352 466.898 538.081 471.817 538.081 471.817L479.609 442.651L420.064 414.465C420.064 414.465 469.45 450.134 504.489 462.396Z" fill="#370802"/>
<path d="M98.9784 323.302C88.6936 332.408 27.4797 346.422 27.4797 346.422C27.4797 346.422 44.4078 333.066 54.0652 325.739C63.7225 318.412 82.8477 314.33 82.8477 314.33L121.35 308.185C121.35 308.185 109.263 314.196 98.9784 323.302Z" fill="#7D3B21"/>
<path d="M93.1523 323.06C102.175 317.679 115.263 307.333 115.263 307.333L68.8262 325.566L22.4811 345.218C22.4811 345.218 68.5727 337.721 93.1523 323.06Z" fill="#370802"/>
<path d="M493.244 362L554 380.5L552 391.5L493.244 362Z" fill="#2D0704"/>
<path d="M86.2148 177.747L22.713 178.765L21.2442 167.682L86.2148 177.747Z" fill="#2D0704"/>
<path d="M53.8377 382.652C65.1731 369.461 138.364 332.08 138.364 332.08C138.364 332.08 119.474 352.122 108.656 363.256C97.8376 374.39 74.9283 385.766 74.9283 385.766L28.512 406.545C28.512 406.545 42.5023 395.844 53.8377 382.652Z" fill="#7D3B21"/>
<path d="M54.287 381.612C43.971 390.517 29.3693 406.032 29.3693 406.032L83.8089 369.893L137.934 332.337C137.934 332.337 82.3891 357.356 54.287 381.612Z" fill="#370802"/>
<path d="M97.5881 175.703C95.5403 155.573 108.854 136.999 128.706 133.084C252.959 108.58 359.124 107.98 487.592 137.431C508.139 142.141 520.859 162.51 516.82 183.199L470.094 422.557C467.158 437.598 453.357 448.008 438.088 446.699L292.299 434.205H150.988C135.596 434.205 122.7 422.555 121.143 407.242L97.5881 175.703Z" fill="#79360C"/>
<path d="M97.5929 180.333C95.5426 160.199 108.861 141.619 128.72 137.715C250.854 113.708 355.306 113.126 481.572 141.974C502.129 146.671 514.854 167.048 510.81 187.743L464.922 422.565C461.984 437.603 448.186 448.009 432.92 446.703L289.532 434.427H150.569C135.177 434.427 122.282 422.779 120.723 407.466L97.5929 180.333Z" fill="#FFC36B"/>
<path d="M145.353 52.4917C144.579 47.6571 147.383 42.9971 152.062 41.5543C178.478 33.4086 263.86 8.99507 317.012 16.1095C380.512 24.609 324.326 16.0344 329.012 16.1095C371.139 16.7846 435.512 33.3595 435.512 33.3595L460.332 39.5643C465.057 40.7457 468.244 45.1601 467.878 50.0174L461.012 141.109L391.512 137.609L374.012 155.609L266.012 148.109L254.512 131.609H158.012L145.353 52.4917Z" fill="#9B3330"/>
<path d="M131.341 37.6656C130.568 32.8309 133.372 28.171 138.051 26.7282C164.466 18.5825 249.848 -5.83103 303 1.2834C366.5 9.78289 310.314 1.20832 315 1.2834C357.127 1.95847 421.5 18.5334 421.5 18.5334L446.32 24.7382C451.045 25.9196 454.232 30.334 453.866 35.1913L447 126.283L377.5 122.783L360 140.783L252 133.283L240.5 116.783H144L131.341 37.6656Z" fill="#B25033"/>
<path d="M159.353 69.7417C158.579 64.907 161.384 60.2471 166.062 58.8043C192.478 50.6586 277.86 26.245 331.012 33.3595C394.512 41.859 338.326 33.2844 343.012 33.3595C385.139 34.0345 449.512 50.6094 449.512 50.6094L474.332 56.8143C479.057 57.9957 482.244 62.4101 481.878 67.2673L475.012 158.359L405.512 154.859L388.012 172.859L280.012 165.359L268.512 148.859H172.012L159.353 69.7417Z" fill="#B25033" fill-opacity="0.24"/>
<path d="M157.498 130.611L144.998 116.611H240.498L253.998 133.611L359.998 141.111L378.498 122.611L447.498 127.111L460.498 141.111L391.998 139.111L373.498 155.611L265.998 147.611L253.998 133.611L157.498 130.611Z" fill="#57083F"/>
<path d="M290.934 71.6208L346.498 141L306.998 138L290.934 71.6208Z" fill="#57083F"/>
<path d="M320.5 137.5L290.935 71.6206L346 139L320.5 137.5Z" fill="#A13A31"/>
<path d="M137.851 76.9537L212 80L168.5 84L139.682 87.9831L137.851 76.9537Z" fill="#9B3330"/>
<path d="M179.5 71.5L137.655 76.9622L135.856 65.9278L179.5 71.5Z" fill="#9B3330"/>
<path d="M390.756 30.3496L453.309 41.3352L452.659 52.4967L390.756 30.3496Z" fill="#9B3330"/>
<path d="M415.246 52.863L453 47L453 59L415.246 52.863Z" fill="#A13A31"/>
<path d="M218 35C218 18.555 247.5 2.5 247.5 2.5L268 0.5C268 0.5 264.197 23.4131 259.5 35C252 53.5 289.5 66 278.5 85.5C267.5 105 239.5 117 239.5 117H199.5L236.5 81C236.5 81 250 60.5 236.5 53.5C227.43 48.7968 218 46 218 35Z" fill="#9B3330" fill-opacity="0.46"/>
<path d="M316 37C316 20.555 311.5 1 311.5 1L365.5 6C365.5 6 362.198 25.4131 357.5 37C350 55.5 376.5 57 365.5 76.5C354.5 96 377.5 123 377.5 123L360 141L339.5 89C339.5 89 329.5 69 316 62C306.93 57.2968 316 48 316 37Z" fill="#9B3330" fill-opacity="0.46"/>
<path d="M211.3 49.3C210.14 46.86 208.46 44.98 206.26 43.66C204.06 42.3 201.5 41.62 198.58 41.62C195.66 41.62 193.02 42.3 190.66 43.66C188.34 44.98 186.5 46.9 185.14 49.42C183.82 51.9 183.16 54.78 183.16 58.06C183.16 61.34 183.82 64.22 185.14 66.7C186.5 69.18 188.34 71.1 190.66 72.46C193.02 73.78 195.66 74.44 198.58 74.44C202.66 74.44 206.02 73.22 208.66 70.78C211.3 68.34 212.84 65.04 213.28 60.88H196.6V56.44H219.1V60.64C218.78 64.08 217.7 67.24 215.86 70.12C214.02 72.96 211.6 75.22 208.6 76.9C205.6 78.54 202.26 79.36 198.58 79.36C194.7 79.36 191.16 78.46 187.96 76.66C184.76 74.82 182.22 72.28 180.34 69.04C178.5 65.8 177.58 62.14 177.58 58.06C177.58 53.98 178.5 50.32 180.34 47.08C182.22 43.8 184.76 41.26 187.96 39.46C191.16 37.62 194.7 36.7 198.58 36.7C203.02 36.7 206.94 37.8 210.34 40C213.78 42.2 216.28 45.3 217.84 49.3H211.3ZM224.279 62.44C224.279 59.08 224.959 56.14 226.319 53.62C227.679 51.06 229.539 49.08 231.899 47.68C234.299 46.28 236.959 45.58 239.879 45.58C242.759 45.58 245.259 46.2 247.379 47.44C249.499 48.68 251.079 50.24 252.119 52.12V46.12H257.639V79H252.119V72.88C251.039 74.8 249.419 76.4 247.259 77.68C245.139 78.92 242.659 79.54 239.819 79.54C236.899 79.54 234.259 78.82 231.899 77.38C229.539 75.94 227.679 73.92 226.319 71.32C224.959 68.72 224.279 65.76 224.279 62.44ZM252.119 62.5C252.119 60.02 251.619 57.86 250.619 56.02C249.619 54.18 248.259 52.78 246.539 51.82C244.859 50.82 242.999 50.32 240.959 50.32C238.919 50.32 237.059 50.8 235.379 51.76C233.699 52.72 232.359 54.12 231.359 55.96C230.359 57.8 229.859 59.96 229.859 62.44C229.859 64.96 230.359 67.16 231.359 69.04C232.359 70.88 233.699 72.3 235.379 73.3C237.059 74.26 238.919 74.74 240.959 74.74C242.999 74.74 244.859 74.26 246.539 73.3C248.259 72.3 249.619 70.88 250.619 69.04C251.619 67.16 252.119 64.98 252.119 62.5ZM306.406 45.52C308.966 45.52 311.246 46.06 313.246 47.14C315.246 48.18 316.826 49.76 317.986 51.88C319.146 54 319.726 56.58 319.726 59.62V79H314.326V60.4C314.326 57.12 313.506 54.62 311.866 52.9C310.266 51.14 308.086 50.26 305.326 50.26C302.486 50.26 300.226 51.18 298.546 53.02C296.866 54.82 296.026 57.44 296.026 60.88V79H290.626V60.4C290.626 57.12 289.806 54.62 288.166 52.9C286.566 51.14 284.386 50.26 281.626 50.26C278.786 50.26 276.526 51.18 274.846 53.02C273.166 54.82 272.326 57.44 272.326 60.88V79H266.866V46.12H272.326V50.86C273.406 49.14 274.846 47.82 276.646 46.9C278.486 45.98 280.506 45.52 282.706 45.52C285.466 45.52 287.906 46.14 290.026 47.38C292.146 48.62 293.726 50.44 294.766 52.84C295.686 50.52 297.206 48.72 299.326 47.44C301.446 46.16 303.806 45.52 306.406 45.52ZM334.143 52.24C335.263 50.28 336.903 48.68 339.062 47.44C341.223 46.2 343.683 45.58 346.443 45.58C349.403 45.58 352.063 46.28 354.423 47.68C356.783 49.08 358.643 51.06 360.003 53.62C361.363 56.14 362.043 59.08 362.043 62.44C362.043 65.76 361.363 68.72 360.003 71.32C358.643 73.92 356.762 75.94 354.362 77.38C352.003 78.82 349.363 79.54 346.443 79.54C343.603 79.54 341.103 78.92 338.943 77.68C336.823 76.44 335.223 74.86 334.143 72.94V79H328.683V34.6H334.143V52.24ZM356.463 62.44C356.463 59.96 355.963 57.8 354.963 55.96C353.963 54.12 352.603 52.72 350.883 51.76C349.203 50.8 347.343 50.32 345.303 50.32C343.303 50.32 341.443 50.82 339.723 51.82C338.043 52.78 336.683 54.2 335.643 56.08C334.643 57.92 334.143 60.06 334.143 62.5C334.143 64.98 334.643 67.16 335.643 69.04C336.683 70.88 338.043 72.3 339.723 73.3C341.443 74.26 343.303 74.74 345.303 74.74C347.343 74.74 349.203 74.26 350.883 73.3C352.603 72.3 353.963 70.88 354.963 69.04C355.963 67.16 356.463 64.96 356.463 62.44ZM367.189 62.44C367.189 59.08 367.869 56.14 369.229 53.62C370.589 51.06 372.449 49.08 374.809 47.68C377.209 46.28 379.869 45.58 382.789 45.58C385.669 45.58 388.169 46.2 390.289 47.44C392.409 48.68 393.989 50.24 395.029 52.12V46.12H400.549V79H395.029V72.88C393.949 74.8 392.329 76.4 390.169 77.68C388.049 78.92 385.569 79.54 382.729 79.54C379.809 79.54 377.169 78.82 374.809 77.38C372.449 75.94 370.589 73.92 369.229 71.32C367.869 68.72 367.189 65.76 367.189 62.44ZM395.029 62.5C395.029 60.02 394.529 57.86 393.529 56.02C392.529 54.18 391.169 52.78 389.449 51.82C387.769 50.82 385.909 50.32 383.869 50.32C381.829 50.32 379.969 50.8 378.289 51.76C376.609 52.72 375.269 54.12 374.269 55.96C373.269 57.8 372.769 59.96 372.769 62.44C372.769 64.96 373.269 67.16 374.269 69.04C375.269 70.88 376.609 72.3 378.289 73.3C379.969 74.26 381.829 74.74 383.869 74.74C385.909 74.74 387.769 74.26 389.449 73.3C391.169 72.3 392.529 70.88 393.529 69.04C394.529 67.16 395.029 64.98 395.029 62.5ZM415.236 51.46C416.196 49.58 417.556 48.12 419.316 47.08C421.116 46.04 423.296 45.52 425.856 45.52V51.16H424.416C418.296 51.16 415.236 54.48 415.236 61.12V79H409.776V46.12H415.236V51.46Z" fill="white"/>
</svg>
