<svg width="612" height="523" viewBox="0 0 612 523" fill="none" xmlns="http://www.w3.org/2000/svg">
<path d="M3.59679 119.39C1.54435 99.2523 14.876 80.6973 34.7033 76.6191C222.74 37.9429 380.361 36.7986 575.099 83.4399C595.611 88.3526 608.35 108.705 604.302 129.405L532.669 495.672C529.728 510.706 515.933 521.11 500.67 519.805L282 501.099H69.5979C54.2071 501.099 41.313 489.452 39.7525 474.141L3.59679 119.39Z" fill="#BD7029"/>
<path d="M50.5883 155.261C48.5404 135.132 61.8379 116.579 81.6685 112.561C238.97 80.6871 371.837 79.8081 534.64 118.195C555.157 123.032 567.859 143.377 563.82 164.066L504.182 469.557C501.245 484.598 487.445 495.008 472.176 493.7L288.648 477.972H110.521C95.1286 477.972 82.2335 466.322 80.6755 451.008L50.5883 155.261Z" fill="#1F0F0F"/>
<path d="M55.5858 153.266C53.5393 133.139 66.8402 114.585 86.6712 110.58C237.997 80.0255 366.043 79.1975 522.638 115.984C543.155 120.804 555.861 141.15 551.825 161.836L494.515 455.553C491.58 470.596 477.778 481.007 462.508 479.698L285.809 464.548H114.341C98.9479 464.548 86.0525 452.897 84.4953 437.582L55.5858 153.266Z" fill="#531B06"/>
<path d="M528 239L590 204L583 241L528 239Z" fill="#2A0B08"/>
<path d="M576.975 225.5L528 239L590 204L576.975 225.5Z" fill="#833713"/>
<path d="M84.2559 183.211L5.50458 135.999L9.47924 173.967L84.2559 183.211Z" fill="#2A0B08"/>
<path d="M19.9443 159.889L84.2559 183.211L5.50458 135.999L19.9443 159.889Z" fill="#833713"/>
<path d="M505.615 462.268C488.528 459.021 419.628 414.221 419.628 414.221C419.628 414.221 446.42 420.6 461.465 424.425C476.511 428.25 497.796 442.434 497.796 442.434L538.954 472.305C538.954 472.305 522.702 465.515 505.615 462.268Z" fill="#7D3B21"/>
<path d="M504.489 462.396C517.352 466.898 538.081 471.817 538.081 471.817L479.609 442.651L420.064 414.465C420.064 414.465 469.45 450.134 504.489 462.396Z" fill="#370802"/>
<path d="M98.9784 323.302C88.6936 332.408 27.4797 346.422 27.4797 346.422C27.4797 346.422 44.4078 333.066 54.0652 325.739C63.7225 318.412 82.8477 314.33 82.8477 314.33L121.35 308.185C121.35 308.185 109.263 314.196 98.9784 323.302Z" fill="#7D3B21"/>
<path d="M93.1523 323.06C102.175 317.679 115.263 307.333 115.263 307.333L68.8262 325.566L22.4811 345.218C22.4811 345.218 68.5727 337.721 93.1523 323.06Z" fill="#370802"/>
<path d="M493.244 362L554 380.5L552 391.5L493.244 362Z" fill="#2D0704"/>
<path d="M86.2148 177.747L22.713 178.765L21.2442 167.682L86.2148 177.747Z" fill="#2D0704"/>
<path d="M53.8377 382.652C65.1731 369.461 138.364 332.08 138.364 332.08C138.364 332.08 119.474 352.122 108.656 363.256C97.8376 374.39 74.9283 385.766 74.9283 385.766L28.512 406.545C28.512 406.545 42.5023 395.844 53.8377 382.652Z" fill="#7D3B21"/>
<path d="M54.287 381.612C43.971 390.517 29.3693 406.032 29.3693 406.032L83.8089 369.893L137.934 332.337C137.934 332.337 82.3891 357.356 54.287 381.612Z" fill="#370802"/>
<path d="M97.5881 175.703C95.5403 155.573 108.854 136.999 128.706 133.084C252.959 108.58 359.124 107.98 487.592 137.431C508.139 142.141 520.859 162.51 516.82 183.199L470.094 422.557C467.158 437.598 453.357 448.008 438.088 446.699L292.299 434.205H150.988C135.596 434.205 122.7 422.555 121.143 407.242L97.5881 175.703Z" fill="#79360C"/>
<path d="M97.5929 180.333C95.5426 160.199 108.861 141.619 128.72 137.715C250.854 113.708 355.306 113.126 481.572 141.974C502.129 146.671 514.854 167.048 510.81 187.743L464.922 422.565C461.984 437.603 448.186 448.009 432.92 446.703L289.532 434.427H150.569C135.177 434.427 122.282 422.779 120.723 407.466L97.5929 180.333Z" fill="#FFC36B"/>
<path d="M145.353 52.4917C144.579 47.6571 147.383 42.9971 152.062 41.5543C178.478 33.4086 263.86 8.99507 317.012 16.1095C380.512 24.609 324.326 16.0344 329.012 16.1095C371.139 16.7846 435.512 33.3595 435.512 33.3595L460.332 39.5643C465.057 40.7457 468.244 45.1601 467.878 50.0174L461.012 141.109L391.512 137.609L374.012 155.609L266.012 148.109L254.512 131.609H158.012L145.353 52.4917Z" fill="#9B3330"/>
<path d="M131.341 37.6656C130.568 32.8309 133.372 28.171 138.051 26.7282C164.466 18.5825 249.848 -5.83103 303 1.2834C366.5 9.78289 310.314 1.20832 315 1.2834C357.127 1.95847 421.5 18.5334 421.5 18.5334L446.32 24.7382C451.045 25.9196 454.232 30.334 453.866 35.1913L447 126.283L377.5 122.783L360 140.783L252 133.283L240.5 116.783H144L131.341 37.6656Z" fill="#B25033"/>
<path d="M159.353 69.7417C158.579 64.907 161.384 60.2471 166.062 58.8043C192.478 50.6586 277.86 26.245 331.012 33.3595C394.512 41.859 338.326 33.2844 343.012 33.3595C385.139 34.0345 449.512 50.6094 449.512 50.6094L474.332 56.8143C479.057 57.9957 482.244 62.4101 481.878 67.2673L475.012 158.359L405.512 154.859L388.012 172.859L280.012 165.359L268.512 148.859H172.012L159.353 69.7417Z" fill="#B25033" fill-opacity="0.24"/>
<path d="M157.498 130.611L144.998 116.611H240.498L253.998 133.611L359.998 141.111L378.498 122.611L447.498 127.111L460.498 141.111L391.998 139.111L373.498 155.611L265.998 147.611L253.998 133.611L157.498 130.611Z" fill="#57083F"/>
<path d="M290.934 71.6208L346.498 141L306.998 138L290.934 71.6208Z" fill="#57083F"/>
<path d="M320.5 137.5L290.935 71.6206L346 139L320.5 137.5Z" fill="#A13A31"/>
<path d="M137.851 76.9537L212 80L168.5 84L139.682 87.9831L137.851 76.9537Z" fill="#9B3330"/>
<path d="M179.5 71.5L137.655 76.9622L135.856 65.9278L179.5 71.5Z" fill="#9B3330"/>
<path d="M390.756 30.3496L453.309 41.3352L452.659 52.4967L390.756 30.3496Z" fill="#9B3330"/>
<path d="M415.246 52.863L453 47L453 59L415.246 52.863Z" fill="#A13A31"/>
<path d="M218 35C218 18.555 247.5 2.5 247.5 2.5L268 0.5C268 0.5 264.197 23.4131 259.5 35C252 53.5 289.5 66 278.5 85.5C267.5 105 239.5 117 239.5 117H199.5L236.5 81C236.5 81 250 60.5 236.5 53.5C227.43 48.7968 218 46 218 35Z" fill="#9B3330" fill-opacity="0.46"/>
<path d="M316 37C316 20.555 311.5 1 311.5 1L365.5 6C365.5 6 362.198 25.4131 357.5 37C350 55.5 376.5 57 365.5 76.5C354.5 96 377.5 123 377.5 123L360 141L339.5 89C339.5 89 329.5 69 316 62C306.93 57.2968 316 48 316 37Z" fill="#9B3330" fill-opacity="0.46"/>
<path d="M258.88 84.42C256.12 84.42 253.64 83.94 251.44 82.98C249.28 81.98 247.58 80.62 246.34 78.9C245.1 77.14 244.46 75.12 244.42 72.84H250.24C250.44 74.8 251.24 76.46 252.64 77.82C254.08 79.14 256.16 79.8 258.88 79.8C261.48 79.8 263.52 79.16 265 77.88C266.52 76.56 267.28 74.88 267.28 72.84C267.28 71.24 266.84 69.94 265.96 68.94C265.08 67.94 263.98 67.18 262.66 66.66C261.34 66.14 259.56 65.58 257.32 64.98C254.56 64.26 252.34 63.54 250.66 62.82C249.02 62.1 247.6 60.98 246.4 59.46C245.24 57.9 244.66 55.82 244.66 53.22C244.66 50.94 245.24 48.92 246.4 47.16C247.56 45.4 249.18 44.04 251.26 43.08C253.38 42.12 255.8 41.64 258.52 41.64C262.44 41.64 265.64 42.62 268.12 44.58C270.64 46.54 272.06 49.14 272.38 52.38H266.38C266.18 50.78 265.34 49.38 263.86 48.18C262.38 46.94 260.42 46.32 257.98 46.32C255.7 46.32 253.84 46.92 252.4 48.12C250.96 49.28 250.24 50.92 250.24 53.04C250.24 54.56 250.66 55.8 251.5 56.76C252.38 57.72 253.44 58.46 254.68 58.98C255.96 59.46 257.74 60.02 260.02 60.66C262.78 61.42 265 62.18 266.68 62.94C268.36 63.66 269.8 64.8 271 66.36C272.2 67.88 272.8 69.96 272.8 72.6C272.8 74.64 272.26 76.56 271.18 78.36C270.1 80.16 268.5 81.62 266.38 82.74C264.26 83.86 261.76 84.42 258.88 84.42ZM295.175 84.54C292.095 84.54 289.295 83.84 286.775 82.44C284.295 81.04 282.335 79.06 280.895 76.5C279.495 73.9 278.795 70.9 278.795 67.5C278.795 64.14 279.515 61.18 280.955 58.62C282.435 56.02 284.435 54.04 286.955 52.68C289.475 51.28 292.295 50.58 295.415 50.58C298.535 50.58 301.355 51.28 303.875 52.68C306.395 54.04 308.375 56 309.815 58.56C311.295 61.12 312.035 64.1 312.035 67.5C312.035 70.9 311.275 73.9 309.755 76.5C308.275 79.06 306.255 81.04 303.695 82.44C301.135 83.84 298.295 84.54 295.175 84.54ZM295.175 79.74C297.135 79.74 298.975 79.28 300.695 78.36C302.415 77.44 303.795 76.06 304.835 74.22C305.915 72.38 306.455 70.14 306.455 67.5C306.455 64.86 305.935 62.62 304.895 60.78C303.855 58.94 302.495 57.58 300.815 56.7C299.135 55.78 297.315 55.32 295.355 55.32C293.355 55.32 291.515 55.78 289.835 56.7C288.195 57.58 286.875 58.94 285.875 60.78C284.875 62.62 284.375 64.86 284.375 67.5C284.375 70.18 284.855 72.44 285.815 74.28C286.815 76.12 288.135 77.5 289.775 78.42C291.415 79.3 293.215 79.74 295.175 79.74ZM317.174 67.44C317.174 64.08 317.854 61.14 319.214 58.62C320.574 56.06 322.434 54.08 324.794 52.68C327.194 51.28 329.854 50.58 332.774 50.58C335.654 50.58 338.154 51.2 340.274 52.44C342.394 53.68 343.974 55.24 345.014 57.12V51.12H350.534V84H345.014V77.88C343.934 79.8 342.314 81.4 340.154 82.68C338.034 83.92 335.554 84.54 332.714 84.54C329.794 84.54 327.154 83.82 324.794 82.38C322.434 80.94 320.574 78.92 319.214 76.32C317.854 73.72 317.174 70.76 317.174 67.44ZM345.014 67.5C345.014 65.02 344.514 62.86 343.514 61.02C342.514 59.18 341.154 57.78 339.434 56.82C337.754 55.82 335.894 55.32 333.854 55.32C331.814 55.32 329.954 55.8 328.274 56.76C326.594 57.72 325.254 59.12 324.254 60.96C323.254 62.8 322.754 64.96 322.754 67.44C322.754 69.96 323.254 72.16 324.254 74.04C325.254 75.88 326.594 77.3 328.274 78.3C329.954 79.26 331.814 79.74 333.854 79.74C335.894 79.74 337.754 79.26 339.434 78.3C341.154 77.3 342.514 75.88 343.514 74.04C344.514 72.16 345.014 69.98 345.014 67.5ZM365.221 39.6V84H359.761V39.6H365.221Z" fill="white"/>
</svg>
