<svg width="353" height="173" viewBox="0 0 353 173" fill="none" xmlns="http://www.w3.org/2000/svg">
<path d="M15.3529 52.4917C14.5794 47.6571 17.3835 42.9971 22.0623 41.5543C48.478 33.4086 133.86 8.99507 187.012 16.1095C250.512 24.609 194.326 16.0344 199.012 16.1095C241.139 16.7846 305.512 33.3595 305.512 33.3595L330.332 39.5643C335.057 40.7457 338.244 45.1601 337.878 50.0174L331.012 141.109L261.512 137.609L244.012 155.609L136.012 148.109L124.512 131.609H28.0118L15.3529 52.4917Z" fill="#9B3330"/>
<path d="M1.34117 37.6656C0.567624 32.8309 3.37173 28.171 8.05051 26.7282C34.4663 18.5825 119.848 -5.83103 173 1.2834C236.5 9.78289 180.314 1.20832 185 1.2834C227.127 1.95847 291.5 18.5334 291.5 18.5334L316.32 24.7382C321.045 25.9196 324.232 30.334 323.866 35.1913L317 126.283L247.5 122.783L230 140.783L122 133.283L110.5 116.783H14L1.34117 37.6656Z" fill="#B25033"/>
<path d="M29.3529 69.7417C28.5794 64.907 31.3835 60.2471 36.0623 58.8043C62.478 50.6586 147.86 26.245 201.012 33.3595C264.512 41.859 208.326 33.2844 213.012 33.3595C255.139 34.0345 319.512 50.6094 319.512 50.6094L344.332 56.8143C349.057 57.9957 352.244 62.4101 351.878 67.2673L345.012 158.359L275.512 154.859L258.012 172.859L150.012 165.359L138.512 148.859H42.0118L29.3529 69.7417Z" fill="#B25033" fill-opacity="0.24"/>
<path d="M27.498 130.611L14.998 116.611H110.498L123.998 133.611L229.998 141.111L248.498 122.611L317.498 127.111L330.498 141.111L261.998 139.111L243.498 155.611L135.998 147.611L123.998 133.611L27.498 130.611Z" fill="#57083F"/>
<path d="M160.934 71.6205L216.498 141L176.998 137.999L160.934 71.6205Z" fill="#57083F"/>
<path d="M190.5 137.5L160.935 71.6204L216 139L190.5 137.5Z" fill="#A13A31"/>
<path d="M7.85135 76.9537L82 80L38.5 84L9.68173 87.9831L7.85135 76.9537Z" fill="#9B3330"/>
<path d="M49.5 71.5L7.65532 76.9622L5.85601 65.9278L49.5 71.5Z" fill="#9B3330"/>
<path d="M260.756 30.3496L323.309 41.3352L322.659 52.4967L260.756 30.3496Z" fill="#9B3330"/>
<path d="M285.246 52.8633L323 47.0002L323 59.0002L285.246 52.8633Z" fill="#A13A31"/>
<path d="M88 35C88 18.555 117.5 2.5 117.5 2.5L138 0.5C138 0.5 134.197 23.4131 129.5 35C122 53.5 159.5 66 148.5 85.5C137.5 105 109.5 117 109.5 117H69.5L106.5 81C106.5 81 120 60.5 106.5 53.5C97.4296 48.7968 88 46 88 35Z" fill="#9B3330" fill-opacity="0.46"/>
<path d="M186 37C186 20.555 181.5 1 181.5 1L235.5 6C235.5 6 232.198 25.4131 227.5 37C220 55.5 246.5 57 235.5 76.5C224.5 96 247.5 123 247.5 123L230 141L209.5 89C209.5 89 199.5 69 186 62C176.93 57.2968 186 48 186 37Z" fill="#9B3330" fill-opacity="0.46"/>
</svg>
