<svg width="639" height="253" viewBox="0 0 639 253" fill="none" xmlns="http://www.w3.org/2000/svg">
<path d="M17.4658 58.9537C17.4658 54.1195 20.7712 50.0116 25.5381 49.2079C80.4904 39.9427 402.607 -10.4213 576.465 50.6049C580.635 52.0688 584.375 53.0937 587.72 53.7786C596.729 55.6226 612.965 67.7124 612.965 76.9076L612.965 179.69C612.965 181.362 612.546 183.007 611.746 184.474L582.148 238.806C578.645 245.236 571.907 249.238 564.585 249.238L415.845 249.238C411.458 249.238 407.515 246.371 406.986 242.015C406.507 238.071 406.521 233.366 408.465 230.238C412.809 223.246 422.845 228.683 427.965 222.238C435.156 213.185 435.279 198.849 425.465 192.738C415.707 186.661 409.235 200.973 397.965 203.238C384.564 205.93 365.274 192.786 356.465 203.238C349.04 212.046 368.465 221.217 368.465 232.738C368.465 236.118 366.951 240.493 365.512 243.888C364.086 247.253 360.692 249.238 357.036 249.238L326.981 249.238C323.825 249.238 320.854 247.748 318.966 245.218L274.965 186.257C273.077 183.727 270.107 182.238 266.951 182.238L27.4648 182.238C21.942 182.238 17.4648 177.76 17.4648 172.238L17.4658 58.9537Z" fill="#57083F"/>
<path d="M57.1348 74.2335L1 73.5859" stroke="black" stroke-width="5"/>
<path d="M5.21576 42.7161C5.2158 37.882 8.52121 33.774 13.2881 32.9703C68.2404 23.7052 390.357 -26.6589 564.215 34.3674C568.385 35.8312 572.125 36.8562 575.47 37.541C584.479 39.3851 600.715 51.4748 600.715 60.67L600.715 163.453C600.715 165.124 600.296 166.769 599.496 168.237L569.898 222.568C566.395 228.998 559.657 233 552.335 233L403.595 233C399.208 233 395.265 230.134 394.736 225.778C394.257 221.833 394.271 217.129 396.215 214C400.559 207.009 410.595 212.445 415.715 206C422.906 196.947 423.029 182.612 413.215 176.5C403.457 170.423 396.985 184.735 385.715 187C372.314 189.693 353.024 176.549 344.215 187C336.79 195.809 356.215 204.98 356.215 216.5C356.215 219.88 354.701 224.255 353.262 227.65C351.836 231.016 348.442 233 344.786 233L314.731 233C311.575 233 308.604 231.51 306.716 228.981L262.715 170.019C260.827 167.49 257.857 166 254.701 166L15.2148 166C9.69195 166 5.2148 161.523 5.21485 156L5.21576 42.7161Z" fill="#B25033"/>
<path d="M597.497 110.4L557.967 106.48L597.576 103.473L597.497 110.4Z" fill="#5A0C15" stroke="black" stroke-width="5"/>
<path d="M598.342 128.957L534.418 124.67L598.423 121.859L598.342 128.957Z" fill="#5A0C15" stroke="black" stroke-width="5"/>
<path d="M115.321 87.9986L11.2154 113.5L11.2154 102.5L115.321 87.9986Z" fill="#5A0C15"/>
<path d="M110.215 114.456L10.4183 125.456L10.4183 114.456L110.215 114.456Z" fill="#5A0C15"/>
<path d="M154.715 53.5C155.698 38.0661 171.215 12 171.215 12H193.715C193.715 12 214.446 55.3974 215.215 82C216.191 115.718 185.215 165.5 185.215 165.5H151.215C151.215 165.5 185.897 131.565 185.215 106.5C184.566 82.6285 153.198 77.332 154.715 53.5Z" fill="#A74332"/>
<path d="M259.715 166.5C259.715 166.5 266.694 126.626 276.715 105C285.81 85.3722 305.71 79.127 305.215 57.5C304.596 30.4324 257.715 6.99996 257.715 6.99996C257.715 6.99996 350.715 3.99998 373.215 4.99998C374.138 5.041 374.989 5.07866 375.774 5.11316C375.735 5.03823 375.715 4.99996 375.715 4.99996C375.715 4.99996 394.108 5.91962 375.774 5.11316C377.06 7.59965 398.911 50.4619 390.215 75.5C381.307 101.149 336.64 93.3541 337.215 120.5C337.442 131.242 345.268 135.797 346.215 146.5C348.976 177.704 293.215 210.5 293.215 210.5L259.715 166.5Z" fill="#A74332"/>
<path d="M453.215 232.5L475.215 160.5L466.215 69L492.715 17L511.215 20L522.715 140L510.715 232.5H453.215Z" fill="#A74332"/>
</svg>
