<svg width="700" height="601" viewBox="0 0 700 601" fill="none" xmlns="http://www.w3.org/2000/svg">
<rect x="80" y="5" width="540" height="591" rx="45" fill="url(#paint0_linear_60_443)" stroke="black" stroke-width="10"/>
<path d="M488.002 62.4708L620.353 56.8671V68.0745L488.002 62.4708Z" fill="#5A0C15"/>
<path d="M381.002 532.951L619.992 525.43V540.471L381.002 532.951Z" fill="#5A0C15"/>
<path d="M488.002 246.471L620.353 240.867V252.075L488.002 246.471Z" fill="#5A0C15"/>
<path d="M532.002 93.4708L619.153 87.8671V99.0745L532.002 93.4708Z" fill="#5A0C15"/>
<path d="M529.002 258.449L620.484 253.73V263.168L529.002 258.449Z" fill="#5A0C15"/>
<path d="M488.002 399.471L620.353 393.867V405.075L488.002 399.471Z" fill="#5A0C15"/>
<path d="M549.002 412.471L618.019 406.867V418.075L549.002 412.471Z" fill="#5A0C15"/>
<path d="M210.002 468.951L448.992 461.43V476.471L210.002 468.951Z" fill="#5A0C15"/>
<path d="M317.002 182.47L449.353 176.867V188.074L317.002 182.47Z" fill="#5A0C15"/>
<path d="M361.002 29.4708L448.153 23.8671V35.0745L361.002 29.4708Z" fill="#5A0C15"/>
<path d="M358.002 194.449L449.484 189.73V199.168L358.002 194.449Z" fill="#5A0C15"/>
<path d="M317.002 335.47L449.353 329.867V341.074L317.002 335.47Z" fill="#5A0C15"/>
<path d="M378.002 348.47L447.019 342.867V354.074L378.002 348.47Z" fill="#5A0C15"/>
<path d="M212.002 80.4708L344.353 74.8671V86.0745L212.002 80.4708Z" fill="#5A0C15"/>
<path d="M105.002 550.951L343.992 543.43V558.471L105.002 550.951Z" fill="#5A0C15"/>
<path d="M212.002 264.471L344.353 258.867V270.075L212.002 264.471Z" fill="#5A0C15"/>
<path d="M256.002 111.471L343.153 105.867V117.075L256.002 111.471Z" fill="#5A0C15"/>
<path d="M253.002 276.449L344.484 271.73V281.168L253.002 276.449Z" fill="#5A0C15"/>
<path d="M212.002 417.471L344.353 411.867V423.075L212.002 417.471Z" fill="#5A0C15"/>
<path d="M273.002 430.471L342.019 424.867V436.075L273.002 430.471Z" fill="#5A0C15"/>
<path d="M211.654 518.164L79.3033 523.768V512.56L211.654 518.164Z" fill="#5A0C15"/>
<path d="M318.654 47.6842L79.6646 55.205V40.1635L318.654 47.6842Z" fill="#5A0C15"/>
<path d="M211.654 334.164L79.3033 339.768V328.56L211.654 334.164Z" fill="#5A0C15"/>
<path d="M167.654 487.164L80.5029 492.768L80.5029 481.56L167.654 487.164Z" fill="#5A0C15"/>
<path d="M170.654 322.186L79.1724 326.905L79.1724 317.467L170.654 322.186Z" fill="#5A0C15"/>
<path d="M211.654 181.164L79.3033 186.768V175.56L211.654 181.164Z" fill="#5A0C15"/>
<path d="M150.654 168.164L81.6369 173.768L81.6369 162.56L150.654 168.164Z" fill="#5A0C15"/>
<path d="M572.654 371.164L440.303 376.768V365.56L572.654 371.164Z" fill="#5A0C15"/>
<path d="M572.654 187.164L440.303 192.768V181.56L572.654 187.164Z" fill="#5A0C15"/>
<path d="M528.654 340.164L441.503 345.768V334.56L528.654 340.164Z" fill="#5A0C15"/>
<path d="M531.654 175.186L440.172 179.905V170.467L531.654 175.186Z" fill="#5A0C15"/>
<path d="M572.654 34.1639L440.303 39.7676V28.5603L572.654 34.1639Z" fill="#5A0C15"/>
<path d="M580.654 371.164L448.303 376.768V365.56L580.654 371.164Z" fill="#5A0C15"/>
<path d="M580.654 187.164L448.303 192.768V181.56L580.654 187.164Z" fill="#5A0C15"/>
<path d="M536.654 340.164L449.503 345.768V334.56L536.654 340.164Z" fill="#5A0C15"/>
<path d="M539.654 175.186L448.172 179.905V170.467L539.654 175.186Z" fill="#5A0C15"/>
<path d="M580.654 34.1639L448.303 39.7676V28.5603L580.654 34.1639Z" fill="#5A0C15"/>
<defs>
<linearGradient id="paint0_linear_60_443" x1="350" y1="0" x2="350" y2="601" gradientUnits="userSpaceOnUse">
<stop stop-color="#EE7F11"/>
<stop offset="1" stop-color="#3F1C02"/>
</linearGradient>
</defs>
</svg>
