<svg width="612" height="523" viewBox="0 0 612 523" fill="none" xmlns="http://www.w3.org/2000/svg">
<path d="M3.59679 119.39C1.54435 99.2523 14.876 80.6973 34.7033 76.6191C222.74 37.9429 380.361 36.7986 575.099 83.4399C595.611 88.3526 608.35 108.705 604.302 129.405L532.669 495.672C529.728 510.706 515.933 521.11 500.67 519.805L282 501.099H69.5979C54.2071 501.099 41.313 489.452 39.7525 474.141L3.59679 119.39Z" fill="#BD7029"/>
<path d="M50.5883 155.261C48.5404 135.132 61.8379 116.579 81.6685 112.561C238.97 80.6871 371.837 79.8081 534.64 118.195C555.157 123.032 567.859 143.377 563.82 164.066L504.182 469.557C501.245 484.598 487.445 495.008 472.176 493.7L288.648 477.972H110.521C95.1286 477.972 82.2335 466.322 80.6755 451.008L50.5883 155.261Z" fill="#1F0F0F"/>
<path d="M55.5858 153.266C53.5393 133.139 66.8402 114.585 86.6712 110.58C237.997 80.0255 366.043 79.1975 522.638 115.984C543.155 120.804 555.861 141.15 551.825 161.836L494.515 455.553C491.58 470.596 477.778 481.007 462.508 479.698L285.809 464.548H114.341C98.9479 464.548 86.0525 452.897 84.4953 437.582L55.5858 153.266Z" fill="#531B06"/>
<path d="M528 239L590 204L583 241L528 239Z" fill="#2A0B08"/>
<path d="M576.975 225.5L528 239L590 204L576.975 225.5Z" fill="#833713"/>
<path d="M84.2559 183.211L5.50458 135.999L9.47924 173.967L84.2559 183.211Z" fill="#2A0B08"/>
<path d="M19.9443 159.889L84.2559 183.211L5.50458 135.999L19.9443 159.889Z" fill="#833713"/>
<path d="M505.615 462.268C488.528 459.02 419.628 414.221 419.628 414.221C419.628 414.221 446.42 420.6 461.465 424.425C476.511 428.25 497.796 442.434 497.796 442.434L538.954 472.305C538.954 472.305 522.702 465.515 505.615 462.268Z" fill="#7D3B21"/>
<path d="M504.489 462.396C517.352 466.898 538.081 471.817 538.081 471.817L479.609 442.651L420.064 414.465C420.064 414.465 469.45 450.134 504.489 462.396Z" fill="#370802"/>
<path d="M98.9784 323.302C88.6936 332.408 27.4797 346.422 27.4797 346.422C27.4797 346.422 44.4078 333.066 54.0652 325.739C63.7225 318.412 82.8477 314.33 82.8477 314.33L121.35 308.185C121.35 308.185 109.263 314.196 98.9784 323.302Z" fill="#7D3B21"/>
<path d="M93.1523 323.061C102.175 317.679 115.263 307.333 115.263 307.333L68.8262 325.566L22.4811 345.218C22.4811 345.218 68.5727 337.721 93.1523 323.061Z" fill="#370802"/>
<path d="M493.244 362L554 380.5L552 391.5L493.244 362Z" fill="#2D0704"/>
<path d="M86.2148 177.747L22.713 178.765L21.2442 167.682L86.2148 177.747Z" fill="#2D0704"/>
<path d="M53.8377 382.652C65.1731 369.461 138.364 332.08 138.364 332.08C138.364 332.08 119.474 352.121 108.656 363.255C97.8376 374.389 74.9283 385.766 74.9283 385.766L28.512 406.545C28.512 406.545 42.5023 395.843 53.8377 382.652Z" fill="#7D3B21"/>
<path d="M54.287 381.612C43.971 390.516 29.3693 406.031 29.3693 406.031L83.8089 369.893L137.934 332.336C137.934 332.336 82.3891 357.356 54.287 381.612Z" fill="#370802"/>
<path d="M97.5881 175.703C95.5403 155.573 108.854 136.999 128.706 133.084C252.959 108.58 359.124 107.98 487.592 137.431C508.139 142.141 520.859 162.51 516.82 183.199L470.094 422.557C467.158 437.598 453.357 448.008 438.088 446.699L292.299 434.205H150.988C135.596 434.205 122.7 422.555 121.143 407.242L97.5881 175.703Z" fill="#79360C"/>
<path d="M97.5929 180.333C95.5426 160.199 108.861 141.619 128.72 137.715C250.854 113.708 355.306 113.126 481.572 141.974C502.129 146.671 514.854 167.048 510.81 187.743L464.922 422.565C461.984 437.603 448.186 448.009 432.92 446.703L289.532 434.427H150.569C135.177 434.427 122.282 422.779 120.723 407.466L97.5929 180.333Z" fill="#FFC36B"/>
<path d="M145.353 52.4917C144.579 47.6571 147.383 42.9971 152.062 41.5543C178.478 33.4086 263.86 8.99507 317.012 16.1095C380.512 24.609 324.326 16.0344 329.012 16.1095C371.139 16.7846 435.512 33.3595 435.512 33.3595L460.332 39.5643C465.057 40.7457 468.244 45.1601 467.878 50.0174L461.012 141.109L391.512 137.609L374.012 155.609L266.012 148.109L254.512 131.609H158.012L145.353 52.4917Z" fill="#9B3330"/>
<path d="M131.341 37.6656C130.568 32.8309 133.372 28.171 138.051 26.7282C164.466 18.5825 249.848 -5.83103 303 1.2834C366.5 9.78289 310.314 1.20832 315 1.2834C357.127 1.95847 421.5 18.5334 421.5 18.5334L446.32 24.7382C451.045 25.9196 454.232 30.334 453.866 35.1913L447 126.283L377.5 122.783L360 140.783L252 133.283L240.5 116.783H144L131.341 37.6656Z" fill="#B25033"/>
<path d="M159.353 69.7417C158.579 64.907 161.384 60.2471 166.062 58.8043C192.478 50.6586 277.86 26.245 331.012 33.3595C394.512 41.859 338.326 33.2844 343.012 33.3595C385.139 34.0345 449.512 50.6094 449.512 50.6094L474.332 56.8143C479.057 57.9957 482.244 62.4101 481.878 67.2673L475.012 158.359L405.512 154.859L388.012 172.859L280.012 165.359L268.512 148.859H172.012L159.353 69.7417Z" fill="#B25033" fill-opacity="0.24"/>
<path d="M157.498 130.611L144.998 116.611H240.498L253.998 133.611L359.998 141.111L378.498 122.611L447.498 127.111L460.498 141.111L391.998 139.111L373.498 155.611L265.998 147.611L253.998 133.611L157.498 130.611Z" fill="#57083F"/>
<path d="M290.934 71.6205L346.498 141L306.998 137.999L290.934 71.6205Z" fill="#57083F"/>
<path d="M320.5 137.5L290.935 71.6204L346 139L320.5 137.5Z" fill="#A13A31"/>
<path d="M137.851 76.9537L212 80L168.5 84L139.682 87.9831L137.851 76.9537Z" fill="#9B3330"/>
<path d="M179.5 71.5L137.655 76.9622L135.856 65.9278L179.5 71.5Z" fill="#9B3330"/>
<path d="M390.756 30.3496L453.309 41.3352L452.659 52.4967L390.756 30.3496Z" fill="#9B3330"/>
<path d="M415.246 52.8633L453 47.0002L453 59.0002L415.246 52.8633Z" fill="#A13A31"/>
<path d="M218 35C218 18.555 247.5 2.5 247.5 2.5L268 0.5C268 0.5 264.197 23.4131 259.5 35C252 53.5 289.5 66 278.5 85.5C267.5 105 239.5 117 239.5 117H199.5L236.5 81C236.5 81 250 60.5 236.5 53.5C227.43 48.7968 218 46 218 35Z" fill="#9B3330" fill-opacity="0.46"/>
<path d="M316 37C316 20.555 311.5 1 311.5 1L365.5 6C365.5 6 362.198 25.4131 357.5 37C350 55.5 376.5 57 365.5 76.5C354.5 96 377.5 123 377.5 123L360 141L339.5 89C339.5 89 329.5 69 316 62C306.93 57.2968 316 48 316 37Z" fill="#9B3330" fill-opacity="0.46"/>
</svg>
