<svg width="366" height="110" viewBox="0 0 366 110" fill="none" xmlns="http://www.w3.org/2000/svg">
<rect x="265.375" y="10" width="100" height="100" fill="#5A0D44"/>
<path d="M266 110L256.625 98.75H355.375L366 110H266Z" fill="#55052F"/>
<g filter="url(#filter0_d_145_272)">
<path d="M256.625 10C256.625 4.47716 261.102 0 266.625 0H356.625V100H256.625V10Z" fill="#B25033"/>
</g>
<path d="M365.375 10L356.625 0V10H365.375Z" fill="#5A0D44"/>
<path d="M256.625 21.25L277.875 23.75L256.625 27.5L280.375 30L256.625 36.875V27.5V21.25Z" fill="#A74332"/>
<path d="M356.623 58.4143L325.645 55.5351L356.7 52.1648L322.073 49.241L356.814 42.7905L356.7 52.1648L356.623 58.4143Z" fill="#A74332"/>
<path d="M313.5 100C313.5 100 313.5 62.5 322.875 58.75C319.75 71.875 336.625 100 336.625 100H313.5Z" fill="#A74332"/>
<path d="M307.249 1.87457e-05C307.249 1.87457e-05 307.616 37.4982 298.278 41.3397C301.274 28.1848 284.125 0.226091 284.125 0.226091L307.249 1.87457e-05Z" fill="#A74332"/>
<path d="M256 73.125V81.25V90.625L312.875 81.25L256 73.125Z" fill="#A74332"/>
<path d="M256 73.75V81.25H312.875L256 73.75Z" fill="#5A0D44"/>
<path d="M351.501 7.04013L321.471 18.7316L353.377 21.415L356.502 17.0401L356.502 11.4151L351.501 7.04013Z" fill="#A74332"/>
<path d="M351.626 6.87476L321.595 19.1912L350.376 14.9999L356.626 11.8747L351.626 6.87476Z" fill="#5A0D44"/>
<path d="M345.105 90.9671L356.309 93.8434L356.779 81.4944L336.204 72.2057L345.105 90.9671Z" fill="#A74332"/>
<path d="M345.105 90.9671L356.309 93.8434L351.057 85.4365L336.204 72.2057L345.105 90.9671Z" fill="#5A0D44"/>
<circle cx="311" cy="41" r="15" fill="#5A0D44"/>
<path d="M310.5 56C295.864 56 284 63.6112 284 73H337C337 63.6112 325.136 56 310.5 56Z" fill="#5A0D44"/>
<path d="M0 36C0 30.4772 4.47715 26 10 26H257V86H10C4.47715 86 0 81.5228 0 76V36Z" fill="#531B06"/>
<path d="M11 45C11 39.4772 15.4772 35 21 35H257V74H21C15.4772 74 11 69.5228 11 64V45Z" fill="#FFC36B"/>
<path d="M83.52 47.08V69H79.88V65.76C79.1867 66.88 78.2133 67.76 76.96 68.4C75.7333 69.0133 74.3733 69.32 72.88 69.32C71.1733 69.32 69.64 68.9733 68.28 68.28C66.92 67.56 65.84 66.4933 65.04 65.08C64.2667 63.6667 63.88 61.9467 63.88 59.92V47.08H67.48V59.44C67.48 61.6 68.0267 63.2667 69.12 64.44C70.2133 65.5867 71.7067 66.16 73.6 66.16C75.5467 66.16 77.08 65.56 78.2 64.36C79.32 63.16 79.88 61.4133 79.88 59.12V47.08H83.52ZM97.4259 69.36C95.7459 69.36 94.2393 69.08 92.9059 68.52C91.5726 67.9333 90.5193 67.1333 89.7459 66.12C88.9726 65.08 88.5459 63.8933 88.4659 62.56H92.2259C92.3326 63.6533 92.8393 64.5467 93.7459 65.24C94.6793 65.9333 95.8926 66.28 97.3859 66.28C98.7726 66.28 99.8659 65.9733 100.666 65.36C101.466 64.7467 101.866 63.9733 101.866 63.04C101.866 62.08 101.439 61.3733 100.586 60.92C99.7326 60.44 98.4126 59.9733 96.6259 59.52C94.9993 59.0933 93.6659 58.6667 92.6259 58.24C91.6126 57.7867 90.7326 57.1333 89.9859 56.28C89.2659 55.4 88.9059 54.2533 88.9059 52.84C88.9059 51.72 89.2393 50.6933 89.9059 49.76C90.5726 48.8267 91.5193 48.0933 92.7459 47.56C93.9726 47 95.3726 46.72 96.9459 46.72C99.3726 46.72 101.333 47.3333 102.826 48.56C104.319 49.7867 105.119 51.4667 105.226 53.6H101.586C101.506 52.4533 101.039 51.5333 100.186 50.84C99.3593 50.1467 98.2393 49.8 96.8259 49.8C95.5193 49.8 94.4793 50.08 93.7059 50.64C92.9326 51.2 92.5459 51.9333 92.5459 52.84C92.5459 53.56 92.7726 54.16 93.2259 54.64C93.7059 55.0933 94.2926 55.4667 94.9859 55.76C95.7059 56.0267 96.6926 56.3333 97.9459 56.68C99.5193 57.1067 100.799 57.5333 101.786 57.96C102.773 58.36 103.613 58.9733 104.306 59.8C105.026 60.6267 105.399 61.7067 105.426 63.04C105.426 64.24 105.093 65.32 104.426 66.28C103.759 67.24 102.813 68 101.586 68.56C100.386 69.0933 98.9993 69.36 97.4259 69.36ZM130.564 57.2C130.564 57.8933 130.524 58.6267 130.444 59.4H112.924C113.058 61.56 113.791 63.2533 115.124 64.48C116.484 65.68 118.124 66.28 120.044 66.28C121.618 66.28 122.924 65.92 123.964 65.2C125.031 64.4533 125.778 63.4667 126.204 62.24H130.124C129.538 64.3467 128.364 66.0667 126.604 67.4C124.844 68.7067 122.658 69.36 120.044 69.36C117.964 69.36 116.098 68.8933 114.444 67.96C112.818 67.0267 111.538 65.7067 110.604 64C109.671 62.2667 109.204 60.2667 109.204 58C109.204 55.7333 109.658 53.7467 110.564 52.04C111.471 50.3333 112.738 49.0267 114.364 48.12C116.018 47.1867 117.911 46.72 120.044 46.72C122.124 46.72 123.964 47.1733 125.564 48.08C127.164 48.9867 128.391 50.24 129.244 51.84C130.124 53.4133 130.564 55.2 130.564 57.2ZM126.804 56.44C126.804 55.0533 126.498 53.8667 125.884 52.88C125.271 51.8667 124.431 51.1067 123.364 50.6C122.324 50.0667 121.164 49.8 119.884 49.8C118.044 49.8 116.471 50.3867 115.164 51.56C113.884 52.7333 113.151 54.36 112.964 56.44H126.804ZM139.009 50.64C139.649 49.3867 140.556 48.4133 141.729 47.72C142.929 47.0267 144.382 46.68 146.089 46.68V50.44H145.129C141.049 50.44 139.009 52.6533 139.009 57.08V69H135.369V47.08H139.009V50.64ZM148.731 43.4V40.08H156.251V69H152.571V43.4H148.731ZM162.063 66.08C165.45 63.36 168.103 61.1333 170.023 59.4C171.943 57.64 173.557 55.8133 174.863 53.92C176.197 52 176.863 50.12 176.863 48.28C176.863 46.5467 176.437 45.1867 175.583 44.2C174.757 43.1867 173.41 42.68 171.543 42.68C169.73 42.68 168.317 43.2533 167.303 44.4C166.317 45.52 165.783 47.0267 165.703 48.92H162.183C162.29 45.9333 163.197 43.6267 164.903 42C166.61 40.3733 168.81 39.56 171.503 39.56C174.25 39.56 176.423 40.32 178.023 41.84C179.65 43.36 180.463 45.4533 180.463 48.12C180.463 50.3333 179.797 52.4933 178.463 54.6C177.157 56.68 175.663 58.52 173.983 60.12C172.303 61.6933 170.157 63.5333 167.543 65.64H181.303V68.68H162.063V66.08ZM185.431 47.36C185.618 44.9067 186.565 42.9867 188.271 41.6C189.978 40.2133 192.191 39.52 194.911 39.52C196.725 39.52 198.285 39.8533 199.591 40.52C200.925 41.16 201.925 42.04 202.591 43.16C203.285 44.28 203.631 45.5467 203.631 46.96C203.631 48.6133 203.151 50.04 202.191 51.24C201.258 52.44 200.031 53.2133 198.511 53.56V53.76C200.245 54.1867 201.618 55.0267 202.631 56.28C203.645 57.5333 204.151 59.1733 204.151 61.2C204.151 62.72 203.805 64.0933 203.111 65.32C202.418 66.52 201.378 67.4667 199.991 68.16C198.605 68.8533 196.938 69.2 194.991 69.2C192.165 69.2 189.845 68.4667 188.031 67C186.218 65.5067 185.205 63.4 184.991 60.68H188.511C188.698 62.28 189.351 63.5867 190.471 64.6C191.591 65.6133 193.085 66.12 194.951 66.12C196.818 66.12 198.231 65.64 199.191 64.68C200.178 63.6933 200.671 62.4267 200.671 60.88C200.671 58.88 200.005 57.44 198.671 56.56C197.338 55.68 195.325 55.24 192.631 55.24H191.711V52.2H192.671C195.125 52.1733 196.978 51.7733 198.231 51C199.485 50.2 200.111 48.9733 200.111 47.32C200.111 45.9067 199.645 44.7733 198.711 43.92C197.805 43.0667 196.498 42.64 194.791 42.64C193.138 42.64 191.805 43.0667 190.791 43.92C189.778 44.7733 189.178 45.92 188.991 47.36H185.431Z" fill="#5A0D44"/>
<defs>
<filter id="filter0_d_145_272" x="252.625" y="0" width="108" height="108" filterUnits="userSpaceOnUse" color-interpolation-filters="sRGB">
<feFlood flood-opacity="0" result="BackgroundImageFix"/>
<feColorMatrix in="SourceAlpha" type="matrix" values="0 0 0 0 0 0 0 0 0 0 0 0 0 0 0 0 0 0 127 0" result="hardAlpha"/>
<feOffset dy="4"/>
<feGaussianBlur stdDeviation="2"/>
<feComposite in2="hardAlpha" operator="out"/>
<feColorMatrix type="matrix" values="0 0 0 0 0 0 0 0 0 0 0 0 0 0 0 0 0 0 0.25 0"/>
<feBlend mode="normal" in2="BackgroundImageFix" result="effect1_dropShadow_145_272"/>
<feBlend mode="normal" in="SourceGraphic" in2="effect1_dropShadow_145_272" result="shape"/>
</filter>
</defs>
</svg>
